# xmcd
#
# Track frame offsets:
#	150
#	19104
#	36298
#	60167
#	76635
#	94750
#	118915
#	131137
#	150890
#	165214
#	180753
#	194706
#	212653
#	227191
#	242905
#	258427
#	276022
#	293758
#	313561
#	328083
#
# Disc length: 4683
#
# Revision: 1
# Processed by: cddbd v1.5.1PL0 Copyright (c) Steve Scherf et al.
# Submitted via: dBpowerAMP V4.0
# Normalized: r0:TSWAP
#
DISCID=08124914
DTITLE=Various Artist - Get In Line
DYEAR=1900
DGENRE=Country
TTITLE0=Dave Sheriff - Red Hot Salsa
TTITLE1=Engelbert Humperdink - Quando Quando Quando
TTITLE2=Barry Upton - 5-6-7-8
TTITLE3=Deans Brothers - Halfway to Paradise
TTITLE4=Scooter Lee - Ribbon of Highway
TTITLE5=Kimber Clayton - Addicted to Love
TTITLE6=Trini Triggs - Straight Tequila
TTITLE7=Dolly Parton - Peace Train (Holy Roller Edit)
TTITLE8=Frankie Goes To Hollywood - On The Inside
TTITLE9=Sunshine Cowboys - Shipwrecked
TTITLE10=Ronnie McDowell - Smokey Places
TTITLE11=Daily Planet - Duelling Banjos
TTITLE12=Jeanette O'Keefe - Still The One
TTITLE13=Paul Rutler - On The Tracks to tennesse
TTITLE14=Jo Dee Messina - Heads carolina, Tails California
TTITLE15=Tim McGraw - I Like It, I Like It
TTITLE16=Sporran Brothers - Swing Swing Highland Fling
TTITLE17=Smokin' Armadillos - I'm A Cowboy
TTITLE18=Tony Carling - Liberated Man
TTITLE19=Hank Williams Jr. - A Little Less Talk and A Lot More Action
EXTD=
EXTT0=
EXTT1=
EXTT2=
EXTT3=
EXTT4=
EXTT5=
EXTT6=
EXTT7=
EXTT8=
EXTT9=
EXTT10=
EXTT11=
EXTT12=
EXTT13=
EXTT14=
EXTT15=
EXTT16=
EXTT17=
EXTT18=
EXTT19=
PLAYORDER=
